<?xml version="1.0" encoding="UTF-8"?>
<svg id="Layer_2" data-name="Layer 2" xmlns="http://www.w3.org/2000/svg" viewBox="0 0 3790.98 979.05">
  <defs>
    <style>
      .cls-1 {
        fill: #533e27;
      }
    </style>
  </defs>
  <g id="Layer_1-2" data-name="Layer 1">
    <g>
      <path class="cls-1" d="M0,302.69l308.98-1.47-.06-301.22h365.9l1,301.69h303.92v372.62h-241.94v-22.48c0-.75,6.93-7.14,7-12.97.17-13.07-16.68-39.35-23.97-50.99-29.43-47.01-74.19-97.14-77-154.82-.84-17.27,2.1-34.23,1.98-51.43-1.51-1.55-13.5,7.47-15.47,9.01-42.63,33.14-69.03,76.76-72.49,131.36-.54,8.56,1.65,19.44-1.84,27.13-1.5,3.31-8.24,11.63-12.14,9.86-4.66-2.12-17.85-25.49-20.52-25.5-3.02,2.14-2.96,4.63-2.03,8.01,1.68,6.12,13.02,17,15.77,23.21.79,1.78,1.13,2.8.27,4.7-2.1,4.59-27.32,17.32-33.14,19.87-6.86,3-30.55,9.62-33.4,14.57-4.05,7.05,6.39,12.48,10.56,17.53,3.64,4.4,7.86,10.43,7.55,16.49-.44,8.42-18.6,16.35-19,27.07-.34,9.05,12.79,14.56,9.46,27.42-.69,2.67-4.35,6.5-4.54,8.52s2.52,6.91,2.9,10.04c.75,6.09.51,19.65-1.37,25.38-.85,2.6-3.06,4.57-4.02,6.98-3.32,8.31-1.78,15.57,3.52,22.45,19.92,25.83,88.7,26.84,118.96,42.96,2.7,1.44,11.01,6.38,12.54,8.45,3.14,4.23,2.94,14.18,4.28,19.7,6.64,27.38,12.29,55.86,21.13,82.78,6.51,19.81,15.01,38.34,27.01,55.42h-350.91l-.5-300.69H6.5c-1.28,0-4.58-3.01-6.5-3v-368.62Z"/>
      <path class="cls-1" d="M1589.58,975c-22.44-12.11-25.24-33.15-4.02-48.45-14.38-9.39-8.32-20.64,4-27.97-13.27-9.54-16.87-27.09-9.71-41.69,9.37-19.12,36.09-13.4,53.18-12.71,6.79.27,13.67-.36,20.46.04,1.91,8.17-1.42,12.72-9.92,12.92,4.85,12.63,4.67,23.73-.38,32.04-4.22,6.95-14.03,13.87-24.41,14.6-4.77.34-13.31-.41-15.58,2.94-.28.42-1.14,1.68-.77,2.97.31,1.08,1.34,1.72,2.42,2.2,4.21,1.88,8.64,1.21,8.64,1.21s7.72-1.16,18.22.11c9.49,1.15,19.4,9.09,22.85,19.33,3.1,9.21-.12,17.37-1.23,20.75-3.36,10.19-12.68,15.82-20.77,21.71-4.59,1.79-12.32,4.15-22.1,4.05-9.16-.09-16.41-2.3-20.89-4.05ZM1601.92,857.46c-5.9,5.72-6.18,22.53-.87,28.66,16.15,18.64,35.91-15.97,17.54-29.52-4.9-3.62-12.21-3.47-16.68.86ZM1595.94,939.64c-.68.79-6.36,7.43-4.4,13.65,3.09,9.81,23.87,14.38,36.36,6.55,1.07-.67,9.65-6.2,9.04-13.31-.68-7.97-12.46-12.54-19.88-13.47-2.54-.32-14.01-1.75-21.13,6.57Z"/>
      <path class="cls-1" d="M3356.11,975v-130.87h18.5c2.81,0,6.54,3.95,7.97,3.99,1.17.03,8.4-4.2,10.99-5.02,24.71-7.85,45.84,9.62,47.56,34.45,1.54,22.28-2.04,42.79-24.36,52.66-14.19,6.28-23.21,4.13-36.66-2.17v46.95h-24ZM3401.62,854.65c-7.17-.19-20.68,11.33-21.56,17.9-.53,3.95-.59,30.97.26,33.82,1.15,3.86,14.96,13.57,19.31,13.76,6.22.27,12.56-5.93,14.54-11.5,3.08-8.65,3.05-34.43-.03-43.05-2-5.62-6.11-10.75-12.52-10.92Z"/>
      <path class="cls-1" d="M2152.43,975c-1.45-2.31-1.19-4.51-.53-7.02,1.71-6.55,10.55-19.41,13.7-27.27,4.16-10.37,5.49-11.08,1.85-22.17-2-6.08-5.13-13.32-7.53-19.45-5.26-13.42-18.05-35.74-20.99-47.95-.58-2.4-.65-4.58-.49-7.01,4.83-.14,9.71.19,14.54.05,2.63-.08,6.26-2.17,7.97-.06l21.98,55.94,21.49-55.92h17.5c3.56,0-1.3,10.12-2.03,11.96-10.15,25.6-21.4,51.3-32.28,76.63-6.11,14.2-12.56,28.32-19.17,42.28h-16Z"/>
      <path class="cls-1" d="M2080.45,764.22c.31-12.97,5.18-25.19,7.73-37.73,23.41-115.36,35.45-232.75,50.25-349.38l3.15-58.79c.83-2.53,8.93-1.77,11.4-1.68,8.28.3,17.69,2.2,25.99,2.08,6.83-.1,15.07-2.16,22.02-2.7,5.75,11.56,9.89,24.49,14.96,36.6,39.06,93.25,84.56,183.84,129.24,274.45l2.68,2.31c2.01-6.3,4.85-12.35,7.66-18.34,45.02-96.16,93-191.11,131.38-290.29,2.89-7.76,10.51-3.22,16.89-3.02,14.9.48,29.67-1.15,44.54-1.05.78,22.47,1.06,45.03,3,67.43,4.64,53.48,13.11,106.76,19.86,159.97,5.22,41.13,9.15,82.56,15.26,123.61,3.94,26.49,12.65,57.44,14.73,83.19.36,4.44.02,8.92.13,13.36h-104.97c-.76-25.08,1.01-50.39.04-75.46-.71-18.44-4.17-36.58-6.03-54.91-4.26-42.07-9.3-83.92-13.99-125.87-1.07-9.55-.58-20.73-2.05-29.92-.19-1.18-.61-2.36-1.95-2.53-46.9,94.79-92.29,190.43-132.22,288.45-2.17,2.48-27.01,1.1-31.74.75-15.35-29.92-27.76-61.45-41.82-92.07-29.49-64.22-60.61-127.67-91.62-191.16l-3.52-3.97c-1.2,12.76-1.58,25.71-3.02,38.45-5.88,52.18-14.4,104.5-18.98,156.85-2.65,30.3-1.73,61.06-4,91.4h-64.98Z"/>
      <path class="cls-1" d="M3286.08,764.16l-89.97.6c-1.15-.78-.87-1.62-.77-2.76.65-6.96,5.54-16.63,6.71-24.36.69-4.56,1.12-9.96.1-14.38-1.72-1.55-10.92,11.46-12.5,12.98-35.67,34.29-103.86,38.1-146.13,15.16-41.85-22.72-72.16-74.24-75.35-121.51-4.62-68.46,2.8-128.26,56.55-175.34,41.05-35.95,108.01-42.96,156.48-18.55,2.64,1.33,16.47,11.04,17.95,9.53l-.36-172.68c28.71,1.19,57.66.45,86.4,1.3l.8,1.2c-.06,32.25.55,64.55.18,96.8-.26,23.09-1.62,46.81-2.03,69.9-1.7,94.63,1.68,189.91,3.04,284.65.07,4.91.45,35.95-1.1,37.46ZM3124.96,465.8c-63.64,7.68-68.22,107.72-64.75,156.05,3.15,43.95,23.98,109.83,81.17,95.12,27.73-7.13,46.2-38.08,52.91-64.01,13.66-52.8,15.94-197.45-69.33-187.16Z"/>
      <path class="cls-1" d="M1410.59,429.53c-1.1.24-2.14.05-3.21-.23-3.93-1-15.82-17.25-19.72-21.24-69.1-70.87-188.7-60.99-226.73,36.22-28.27,72.25-26.03,192.69,39.3,244.98,52.84,42.29,133.44,35.26,187.13-1.74,7.13-4.91,19.43-17.12,25.93-20.04,1.94-.87,3.48-1.51,5.7-1.22,1.77.4.72,8.75.52,10.44-1.23,10.12-4.71,20.42-6.58,30.38-1.11,5.89-1.33,21.99-4.77,25.2-2.59,2.41-18.88,9.95-23.16,11.82-134.58,58.86-311.81-2.25-333.13-159.34-12.99-95.74,13.53-187.8,100.81-237.64,71.3-40.71,177.76-41.52,249.63-1.65,4.45,2.47,18.14,10.72,20.8,14.19,2.67,3.48-1.32,9.37-2.2,13.73-3.77,18.68-8.31,37.16-10.31,56.13Z"/>
      <path class="cls-1" d="M1598.37,428.86c65.49-4.98,131.6,8.71,171.38,64.92,48.1,67.96,40.14,178.34-25.74,232.46-83.11,68.27-230.08,48.08-276.58-54.24-18.13-39.89-19.18-103.81-3.29-144.49,21.58-55.23,74.91-94.13,134.23-98.64ZM1616.37,474.81c-59.86,6.13-72.35,68.11-72.82,118.04-.51,53.66,3.83,126.7,68.83,139.11,44.14,8.42,75.58-20.62,87.69-60.63,19.65-64.91,14.9-206.61-83.7-196.52Z"/>
      <path class="cls-1" d="M2718.28,608.38c-1.22,53.72,19.52,104.33,76.94,115.42,32.14,6.21,74.24-6.2,99.91-26.11,4.96-3.85,17.44-17.38,22.51-17.33.95.01,2.18.25,3.44,1.1,8.75,5.85-.53,32.3-2.06,36.68-3.82,10.88-8.26,16.92-10.39,19.58,0,0-3.51,5.13-8.66,8.75-64.9,45.6-185.45,32.77-236.64-29.73-45.38-55.42-47.67-159.15-10.45-219.17,36.08-58.18,91.79-74.23,157.86-68.99,82.49,6.54,124.39,87.77,119.53,163.36-.23,3.54-1.07,16.44-5.54,16.44h-206.45ZM2844.26,569.42c-.41-24.43-1.97-50.52-14.2-72.24-27.8-49.39-79.22-34.91-100.64,10.94-9.22,19.73-10.33,38.92-12.14,60.29h0l126.97,1.01Z"/>
      <path class="cls-1" d="M3666.83,427.86c32.22-.99,61.15,1.94,90.54,15.83,5.69,2.69,33.49,18.74,33.61,24.31l-34.64,76.35c-2.59.73-3.36-1.75-4.22-3.51-11.17-22.83-9.59-41.24-35.43-55.5-48.94-27-99.48-.2-116.35,49.91-11.2,33.27-11.83,82.56.94,115.36,25.26,64.85,96.87,86.24,155.25,48.71,3.72-2.39,16.15-13.12,18.37-13.49,2.61-.44,5.82,1.86,6.93,4.18l-13.78,47.8c-2.09,6.37-9.05,9.64-14.69,12.3-39.16,18.47-100.44,19.11-141.11,5.42-69.4-23.35-109.7-80.62-110.27-153.62-.29-37.03,3.87-67.4,23.66-99.32,31.27-50.44,83.14-72.92,141.18-74.71Z"/>
      <path class="cls-1" d="M2055.33,452.69c1.02,1.74-3.4,8.55-4.33,10.87-2.91,7.29-6.44,15.79-8.8,23.17-2.01,6.29-3.32,17.51-5.64,22.34-1.85,3.84-8.86,4.86-11.6,2.42-1.43-1.27-6.7-13.56-9.05-16.93-22.15-31.73-86.13-40.34-100.59.24-16.6,46.57,44.39,55.96,74.15,68.13,25.89,10.59,51.74,25.2,65.17,50.76,11.97,22.78,10.66,62.04,0,85.25-30.51,66.44-120.19,77.95-183.08,56.73-12.45-4.2-24.57-11.02-36.96-15.54,7.31-21.49,15.55-42.94,18.03-65.72,9.58-2.49,12.08,9.48,17.37,15.88,25.48,30.84,102.86,44.36,116.8-3.19,12.76-43.53-44.79-55.08-73.28-66.27-47.79-18.77-77.73-45.46-73.99-100.86,6.01-89.03,105.45-104.82,175.94-83.92,13.83,4.1,27.31,9.57,39.86,16.63Z"/>
      <path class="cls-1" d="M3446,427.64c1.54,4.23,1.26,8.97,1.13,13.45-1.9,66.89-4.03,132.81-3,199.71.63,40.55,1.88,81.13,1.82,121.78l-.8,1.2h0s-83.42,3.19-91.71.15c-1.34-.49-2.12-1.41-2.12-1.41-2.37-2.79-.28-7.85-.24-8.83,1.09-28.57,5.17-57.22,6.08-85.83,2.02-63.65,2.28-136.57-2.05-199.83-.9-13.14-4.14-26.18-2.99-39.47,12.68-.93,22.34,6.75,34.62,7.87,21.84,1.99,38.52-5.09,59.26-8.78Z"/>
      <path class="cls-1" d="M1025,928.74h0s6.62-45.24,17.69-120.89c1.56-.64,3.62-1.62,6.16-1.69,3.05-.09,6.3.1,7.41-.04l43.46,85.98c13.82-28.31,27.64-56.62,41.46-84.93,1.34-1.62,14.05-1.52,15.08-.05,6.23,40.98,12.46,81.97,18.69,122.95-9.08,0-18.17,0-27.25-.01l-10.49-79.92c-10.61,26.17-21.23,52.34-31.84,78.5-.74.56-2.92,2.07-6.07,2.13-3.83.08-6.41-2.03-7.03-2.57-12.4-25.61-24.81-51.23-37.21-76.84-4.65,50.11-7.16,77.17-7.16,77.17h0s-22.9.22-22.9.22Z"/>
      <path class="cls-1" d="M2554.33,930.05l16.14-122.23c.8-2.56,13.03-2.27,14.37-.66l41.98,85.92,40.03-84.86c1.26-3.16,13.03-2.56,14.01-1.1l16.44,122.93h-23.99c-5.44-25.6-7.01-51.85-9.01-77.92l-37.47,76.93c-1.26,1.52-7.89,1.48-9.51.5-1.39-.84-8.25-18.81-9.81-22.16-8.77-18.79-18.1-37.4-26.68-56.27-2.28-.38-1.37,1-1.49,2.49-.35,4.25.29,8.77.04,13.04-1.18,20.74-4.36,41.18-7.23,61.71l-1.31,1.69h-16.5Z"/>
      <path class="cls-1" d="M3388.89,286.99c23.96-3.01,41.73,3.02,54.43,23.97,27.27,44.99-31.56,99.33-75.68,63.64-32.24-26.08-18.56-82.6,21.25-87.61Z"/>
      <path class="cls-1" d="M2407.37,864.1c33.99,9.65,28.05,51.87-1.65,63.8-13.09,5.26-38.89,8.34-52.38,4.69-11.67-3.16-7.93-7.19-7.91-15.99.08-34.33-.11-68.66-.1-102.98-.18-2.98,3.35-5.19,5.85-6.14,7.93-3.01,48.61-1.89,57.16,1.21,20.11,7.3,25.21,36.92,7.93,49.84-3.01,2.25-6.49,3.02-8.91,5.57ZM2366.38,860.12h17.5c1.34,0,9.26-3.16,10.84-4.16,8.21-5.22,11.35-18.02,6.86-26.51-5.52-10.45-25.44-7.31-35.19-6.3v36.96ZM2367.38,874.1l-1.03,42.47c-.11.84,1.03,2.49,1.53,2.49h18c8.19,0,22.65-13.43,22.42-22.37-.21-8.07-7.51-18.25-15.36-20.64-1.76-.54-8.64-1.94-10.06-1.94h-15.5Z"/>
      <path class="cls-1" d="M2990.21,806.17l1,47.95h64.98v-46.95c3.05-.72,23.99-2.4,23.99.5v122.37h-22.99l-1-59.94h-64.98v58.44c0,.11-1.39,1.5-1.5,1.5h-20.49c-2.29-39.64-.33-79.65-1.05-119.43-.39-1.27,1.74-4.45,2.55-4.45h19.49Z"/>
      <path class="cls-1" d="M1894.94,932.48c-2.07-.11-5.3-.21-9.25,0-7.45.4-10.5,1.55-12.22-.33-2.11-2.3-.36-7.1-2.58-8-.26-.1-.52-.18-.9-.11-1.53.26-9.61,6.45-13.13,7.86-8.04,3.22-14.53,1.76-22.57-1.12-18.34-6.57-25.62-27.09-24.82-45.23,1.61-36.42,27.08-52.75,61.03-38.42h0c-.03-8.28.04-16.57,0-24.85-.11-22.1-.59-25,1.93-26.66,6.48-4.26,23.06,6.07,23.06,6.06h0s-.22,51.12-.56,130.8ZM1850.24,855.35c-20.56,4.27-20.89,49.52-6.77,61.25,11.28,9.37,27.07-9.36,28.07-19.98.49-5.16.54-15.93-.04-21.02-1-8.86-11.59-22.26-21.27-20.25Z"/>
      <path class="cls-1" d="M2039.46,854.12c1.57-.24,1.46-2.15,3.04-3.46,4.66-3.87,11.4-6.92,17.47-7.52,1.49-.15,15.33-1.95,26.46,5.52,18.69,12.55,19.83,44.5,9.39,64.49-2.07,3.96-8.73,16.43-22.09,20.65-6.97,2.2-13.71,1.5-17.6,1.09-7.27-.76-13.19-1.38-16.69-5.26-.58-.64-2.2-2.6-3.01-2.23-.72.33-.07,2.17-.55,3.3-.73,1.73-4.56,2.87-17.67.66l.77-133.2h18c.18,0,2.5,2.32,2.5,2.5v53.45ZM2073.11,863.46c-10.88-10.19-26.3-3.7-31.42,9.37-5.8,14.81-4.27,28.3,3.92,41.58,5.95,9.65,20.75,8.68,27.28-.42,8.81-12.26,12.02-39.49.22-50.54Z"/>
      <path class="cls-1" d="M2844.01,926.82c-1.25,1.24-28.93,8.76-32.38,9.1-21,2.1-37.95-2.17-54.28-15.45-34.42-28-23.28-98.97,21.69-112.03,11.39-3.31,49.13-4.25,59.26,1.17,6.07,3.25,7.51,6.05,6.69,12.79-2.43,19.94-7.83,8.17-18.04,3.56-14.55-6.57-37.89-5.76-50.2,5.17-14.16,12.56-14.91,31.68-13.46,49.45,2.57,31.53,31.87,46.67,60.94,36.95,3.6-1.2,16.02-9.04,18.36-8.38,3.64,1.03,3.5,15.6,1.42,17.66Z"/>
      <path class="cls-1" d="M1411.63,930.05h-22.33c-.22-21.15-.44-42.29-.66-63.43,0-7.39-11.23-9.26-17.06-8.05-2.58.54-11.94,5.94-11.94,8.05v63.43c-14.19-.06-23.3-.1-23.3-.1h0s-.27-33.57-.69-85.81h20.49c.39.03.9.15,1.32.49,1.56,1.28.2,4.24,1.12,4.88,1.08.75,4.1-2.54,7.82-5.11,1.4-.97,6.09-4.02,11.98-5.02,7.61-1.29,13.82,1.44,15.66,2.27,4.25,1.93,6.93,4.47,10.62,7.96,2.12,2.01,3.44,3.28,4.65,5.37,2.36,4.1,2.48,8.25,2.34,10.63v64.43Z"/>
      <path class="cls-1" d="M3164.96,842.44c23.9-2.33,41.29,4.75,50.67,27.69,15.33,37.47-24.24,75.5-61.99,59.94-40.12-16.53-33.39-83.27,11.32-87.63ZM3168.89,854.36c-22.72,4.72-25.78,69.21,5.8,65.72,12.41-1.37,20.87-23.67,20.5-34.43-.47-13.54-9.58-34.76-26.3-31.29Z"/>
      <path class="cls-1" d="M1771.59,890.97c-.31.11-.63.22-.94.33-18.7-.07-37.4-.15-56.1-.22-.09,12.25,5.87,22.79,14.82,26.31.89.35,8.39,3.18,15.85.22,5.56-2.2,6.25-5.7,12-7.27,4.84-1.32,11.54-.81,12.92,2.19,1.87,4.05-6.31,11.82-11.91,15.7-9.51,6.58-19.5,7.38-23.6,7.47-1.24.03-16.37.21-27.28-8.19-20.9-16.09-24-61.85.7-79.39,12.53-8.89,34.34-12.05,49.51.47,14.93,12.32,14.11,32.12,13.97,34.55.02,2.61.04,5.21.06,7.82ZM1748.54,874.1c-1.97-26.97-29.72-24.13-33.01.49,10.99,1.44,22.04.11,33.01-.49Z"/>
      <path class="cls-1" d="M3673.83,842.44c52.04-4.11,37.83,39.5,40.36,74.96,1.98,4.53,10.5.59,10.88,5.17.49,5.97-11.15,10.99-16.29,10.26-4.37-.62-14.51-5.69-17.25-5.7-3.49-.01-10.73,7.02-15.68,8.23-29.46,7.18-51.21-34.88-17.09-50.04,6.88-3.06,27.76-5.43,30.84-8.15,6.46-5.71-4.65-26.8-21.23-19.22-4.22,1.93-15.23,14.58-18.78,9.12-4.81-7.39,2.89-19,9.89-22,3.66-1.56,10.3-2.32,14.36-2.64ZM3692.03,908.57c.79-4.43,0-12.96,0-17.98,0-.6-1.43-1.4-2.29-1.35-2.94.18-15.91,6.37-18.63,8.41-15.89,11.94-1.9,32.26,14.84,18.82,2.26-1.81,5.57-5.01,6.09-7.9Z"/>
      <path class="cls-1" d="M1488.41,842.44c15.29-1.38,28.85.22,36.07,15.31,7.38,15.44.37,39.86,3.36,56.58,1.54,8.6,10.64,5.98,10.73,8.22-2.55,6.31-9.23,11.31-16.37,10.48-3.5-.41-8.22-4.16-11.33-4.77-11.31-2.25-16.78,13.19-35.24,6.28-9.99-3.74-17.52-8.65-18.9-20.08-1.94-16.16,4.52-24.05,18.9-29.84,8.16-3.28,18.76-3.46,25.53-6.45s3.27-14.98-1.19-18.9c-3.76-3.3-11.54-4.59-16.08-2.35-3.53,1.75-6.56,6.76-9.78,9.2-11.27,8.54-12.41-9.14-5.54-16.52,4.9-5.27,12.97-6.53,19.84-7.15ZM1504.12,889.13c-10,3.94-33.66,12.5-22.94,26.87,7.05,9.45,21.3,2.88,23.2-6.66.51-2.55,1.61-15.58,1.23-17.76-.2-1.15-.48-1.8-1.49-2.45Z"/>
      <path class="cls-1" d="M1260.53,876.96c3.55-12.01-8.81-24.26-20.25-19.73-4.26,1.68-15.14,13.26-18.59,11.46-6.23-3.25-2.21-15.37,2.52-19.53,8.34-7.34,26.26-7.19,36.97-6.02,31.83,3.45,19.29,51.46,22.55,71.38.36,2.23,1.16,3.55,2.15,4.35,2.72,2.18,6.24.43,7.36,2.13,1.33,2.02-2.36,6.46-2.7,6.87-.64.78-3.96,4.78-9.27,5.11-.71.04-2.22.07-5.92-1.15-6.71-2.21-7.82-4.31-10.79-5.06-6.44-1.63-9.42,6.17-18.86,8.82-7.89,2.21-17.08-.08-23.53-5.07-7.39-5.72-12.33-15.88-10.37-25.66,1.48-7.42,6.2-12.22,9.96-15.16,11.94-9.33,25.16-7.87,38.76-12.72ZM1261.67,890.09c-11.63,1.58-36.96,12.49-25.02,27.49,4.52,5.68,11.18,3.56,16.7.66,1.91-1.01,8.32-5.93,8.32-7.67v-20.48Z"/>
      <path class="cls-1" d="M3301.49,861.73c-2.16-1.43-4.02-3.99-7.12-5.35-6.19-2.71-11.58-3.76-15.68,2.78-8.18,13.05,14.54,16.94,22.36,21.51,35.21,20.6,7.38,58.11-25.96,52.92-3.32-.52-21.02-6.12-20.52-9.58.26-1.79,7.14-17.49,8.23-17.84,3.88-1.25,9.63,8.67,13.32,11.41,11.95,8.87,26.79-6.55,17.52-14.51-10.96-9.41-32.74-7.37-35.42-27.55-3.39-25.55,17.79-38.67,40.94-33.92,2.65.54,11.27,2.72,13.26,3.73,2.59,1.32,1.94,3.28.95,5.53-.35.79-7.15,10.93-7.69,11.35-1.82,1.39-2.57.58-4.18-.49Z"/>
      <path class="cls-1" d="M3790,794.19v135.86h-22.99l-.87-135.23c1.4-4.1,19.82-2.32,23.86-.63Z"/>
      <path class="cls-1" d="M3584.05,854.12c.82,16.19-1.09,33.41-.04,49.49,1.11,16.98,4.78,20.21,22.03,15.44,1.85,6.98-.95,10.43-6.95,13.53-18.1,9.36-34.39-1.56-36.07-20.98-1.54-17.86,1.34-37.76-.1-55.84-1.17-3.5-10.53.59-10.8-6.2-.29-7.47,8.37-3.84,10.44-7.41,2.19-3.77.82-16.78,5.92-20.06,2.31-1.49,15.57-1.65,15.57.57v19.98c0,.11,1.39,1.5,1.5,1.5h18c3.31,0,.51,9.99-2,9.99h-17.5Z"/>
      <rect class="cls-1" x="2482.35" y="807.17" width="22.99" height="122.87"/>
      <path class="cls-1" d="M3510.07,843.14v86.91h-21.99l-.86-84.27c.33-1.29,1.22-1.43,2.36-1.64,5.59-1.02,14.54-.32,20.5-1Z"/>
      <path class="cls-1" d="M3498.82,799.39c15.66-1.46,18.1,27.95.67,28.71-16.84.73-17.27-27.16-.67-28.71Z"/>
    </g>
  </g>
</svg>